# xmcd CD database file
#
# Track frame offsets:
#	150
#	21780
#	32710
#	44360
#	56227
#	67320
#	77770
#	87750
#	100990
#	111525
#	124592
#	145797
#	157732
#	171087
#	183825
#	195675
#	207450
#	218775
#	229650
#	241425
#	253350
#
# Disc length: 3765 seconds
#
# Revision: 11
# Processed by: cddbd v1.5.2PL0 Copyright (c) Steve Scherf et al.
# Submitted via: CDex 1.51
#
DISCID=310eb315
DTITLE=Huelgas Ensemble - Paul Van Nevel - A Secret Labyrinth [CD12) Orlando di Lasso
DYEAR=1993
DGENRE=Classical
TTITLE0=Part I - I. Il Magnanimo Pietro
TTITLE1=Part I - II. Ma gli archi
TTITLE2=Part I - III. Tre volte haveva
TTITLE3=Part I - IV. Qual a l'incontro
TTITLE4=Part I - V. Giovane donna
TTITLE5=Part I - VI. Cosi talhor
TTITLE6=Part I - VII. Ogni occhio del Signor
TTITLE7=Part II - VIII. Nessun fedel trovai
TTITLE8=Part II - IX. Chi ad una ad una
TTITLE9=Part II - X. Come falda di neve
TTITLE10=Part II - XI. E non fu il pianto suo
TTITLE11=Part II - XII. Quel volto
TTITLE12=Part II - XIII. Veduto il miser
TTITLE13=Part II - XIV. E vago d'incontrar
TTITLE14=Part III - XV. Vattene vita va
TTITLE15=Part III - XVI. O vita troppo rea
TTITLE16=Part III - XVII. A quanti già felici
TTITLE17=Part III - XVIII. Non trovava mia fé
TTITLE18=Part III - XIX. Queste opre e più
TTITLE19=Part III - XX. Negando il mio Signor
TTITLE20=Part III - XXI. Vide homo
EXTD=YEAR: 1993
EXTT0=
EXTT1=
EXTT2=
EXTT3=
EXTT4=
EXTT5=
EXTT6=
EXTT7=
EXTT8=
EXTT9=
EXTT10=
EXTT11=
EXTT12=
EXTT13=
EXTT14=
EXTT15=
EXTT16=
EXTT17=
EXTT18=
EXTT19=
EXTT20=
PLAYORDER=
